<svg xmlns="http://www.w3.org/2000/svg" xmlns:xlink="http://www.w3.org/1999/xlink" version="1.1" id="Your_Icon" x="0px" y="0px" width="200px" height="200px" viewBox="0 0 100 100" enable-background="new 0 0 100 100" xml:space="preserve">
<path fill="#313131" d="M40.71,58.787c-1.205,0-2.257,0.665-2.774,1.678c-0.472-0.044-0.924-0.109-1.375-0.214c-2.56-0.539-4.215-1.293-5.548-2.347  c-0.065-0.064-0.129-0.107-0.194-0.172c-1.226-1.01-2.194-2.277-3.396-3.828c0,0,0-0.021-0.022-0.021  c-0.129-0.473-0.409-1.826,0.129-2.814c0.042-0.065,0.086-0.129,0.15-0.194c0.474,0.303,1.032,0.474,1.635,0.474  c1.742,0,3.139-1.396,3.139-3.14c0-1.719-1.397-3.118-3.139-3.118c-1.569,0-2.86,1.161-3.075,2.667  c-0.773,0.58-1.269,1.227-1.547,1.785c-0.323,0.6-0.517,1.228-0.603,1.826c-0.903-0.3-1.806-0.386-2.666-0.323  c-0.559-0.642-1.376-1.051-2.301-1.051c-1.741,0-3.139,1.417-3.139,3.139c0,1.743,1.397,3.141,3.139,3.141  c1.333,0,2.473-0.84,2.926-2.043c0.88,0.041,1.848,0.363,2.623,1.377l0.193,0.257c0.495,0.626,0.947,1.226,1.42,1.805  c-1.72,0.435-3.033,1.269-3.979,2.194H22.24c-1.721,0-3.118,1.396-3.118,3.139c0,1.721,1.397,3.141,3.118,3.141  c1.742,0,3.14-1.42,3.14-3.141c0-0.472-0.107-0.924-0.302-1.332c0.839-0.624,2.173-1.162,4.172-1.076  c1.592,1.227,3.633,2.194,6.645,2.817c0.752,0.149,1.505,0.26,2.28,0.323c0.537,0.795,1.483,1.332,2.536,1.332  c1.721,0,3.14-1.42,3.14-3.14C43.85,60.184,42.431,58.787,40.71,58.787z M29.314,46.702h0.129c0.021,0,0.064,0,0.086,0.021  c0.751,0.088,1.312,0.71,1.312,1.484c0,0.646-0.387,1.203-0.968,1.396c-0.021,0.023-0.042,0.045-0.064,0.045  c-0.065,0.02-0.129,0.043-0.172,0.064c-0.107,0.021-0.216,0.021-0.323,0.021c-0.839,0-1.505-0.689-1.505-1.527  S28.476,46.702,29.314,46.702z M19.122,54.658c-0.859,0-1.527-0.689-1.527-1.526c0-0.839,0.667-1.526,1.527-1.526  c0.839,0,1.506,0.688,1.506,1.526C20.627,53.969,19.96,54.658,19.122,54.658z M23.745,63.236c0,0.022,0,0.022-0.021,0.044  c0,0.045,0,0.064-0.022,0.086c0,0.021-0.021,0.065-0.042,0.086c0,0.022-0.022,0.044-0.043,0.065c0,0.041,0,0.086-0.043,0.106  c0,0.021-0.022,0.044-0.022,0.063c0,0.021-0.021,0.021-0.043,0.043c-0.021,0.086-0.043,0.15-0.129,0.193  c0,0.044-0.043,0.087-0.086,0.109c-0.043,0.105-0.107,0.148-0.171,0.171c-0.022,0.021-0.022,0.043-0.043,0.043  c0,0.021-0.022,0.021-0.022,0.021c-0.236,0.174-0.515,0.258-0.817,0.258c-0.042,0-0.085,0-0.107-0.021c-0.085,0-0.171,0-0.258-0.022  c-0.666-0.174-1.161-0.773-1.161-1.483c0-0.839,0.687-1.524,1.526-1.524c0.839,0,1.527,0.687,1.527,1.524  C23.767,63.087,23.767,63.173,23.745,63.236z M40.71,63.452c-0.839,0-1.527-0.687-1.527-1.526c0-0.601,0.345-1.117,0.839-1.354  h0.021c0.215-0.106,0.43-0.174,0.667-0.174c0.603,0,1.141,0.367,1.333,0.884c0.043,0.044,0.064,0.106,0.086,0.147  c0.021,0.024,0.021,0.065,0.021,0.09c0.022,0.041,0.022,0.063,0.043,0.104c0.022,0.089,0.022,0.195,0.022,0.303  C42.216,62.766,41.549,63.452,40.71,63.452z"/>
<path fill="#313131" d="M61.719,23.524c-8.814-2.411-9.396,0.815-11.719,0.815c-2.322,0-3.225-3.461-11.762-0.815  C20.025,28.662,6.629,45.455,6.629,65.281v8.02c0,2.301,1.871,4.172,4.171,4.172h78.399c2.301,0,4.172-1.871,4.172-4.172v-8.02  C93.371,45.412,79.953,28.639,61.719,23.524z M86.898,65.281c0,1.462-1.205,2.664-2.668,2.664H54.795  c-1.484,0-2.667-1.202-2.667-2.664c0-0.088,0.022-8.001,0.022-8.001c0-1.183-0.969-2.149-2.15-2.149c-1.182,0-2.15,0.967-2.15,2.149  v8.001c0,1.462-1.184,2.664-2.667,2.664H15.747c-1.484,0-2.667-1.202-2.667-2.664c0-9.354,3.506-17.912,9.269-24.428  c1.161-1.312,2.408-2.538,3.742-3.677c0.688,0.967,1.504,2.817,1.978,4.666c0.129,0.538,0.558,0.989,1.096,1.138  c0.151,0.044,0.301,0.088,0.474,0.088c0.387,0,0.752-0.15,1.053-0.409c0.732-0.645,1.742-1.12,2.882-1.44  c-0.258,1.182-0.301,2.731,0.193,4.665c0.773,3.009,3.397,4.689,5.461,5.569c0,0,0,0,0,0.023c0.301,1.416,1.57,2.471,3.075,2.471  c1.742,0,3.14-1.396,3.14-3.141c0-1.719-1.397-3.139-3.14-3.139c-0.752,0-1.462,0.279-2,0.754c-1.44-0.668-3.01-1.742-3.418-3.334  c-0.71-2.751,0.15-4.15,0.343-4.453c2.344-0.149,4.602,0,5.785,0.173c0.666,0.109,1.333-0.235,1.655-0.838  c0.323-0.602,0.237-1.333-0.236-1.828c-0.688-0.751-1.054-1.525-1.269-2.234c0.902-0.538,1.483-1.529,1.483-2.646  c0-1.743-1.397-3.139-3.139-3.139c-1.72,0-3.14,1.396-3.14,3.139c0,1.117,0.602,2.108,1.505,2.646  c0.086,0.45,0.194,0.944,0.387,1.44c-2.774-0.085-6.709,0.108-9.719,1.592c-0.429-1.206-1.053-2.604-1.914-3.721  c4.795-3.44,10.451-5.742,16.558-6.537c0,0,0.236-0.044,0.345-0.044c1.289,0,2.322,1.033,2.322,2.301V49.69  c0,1.182,0.967,2.15,2.15,2.15c1.183,0,2.149-0.969,2.149-2.15V38.509c0.838,0.582,1.85,1.142,3.054,1.549  c0.173,0.063,0.345,0.106,0.517,0.151c-1.031,1.524-1.548,3.419-0.754,5.376c1.076,2.599,3.334,2.966,4.989,3.225  c0.729,0.107,1.44,0.216,1.979,0.494c1.762,0.925,2.041,2.688,1.978,4.021c-0.086,1.505-0.71,3.054-1.548,4.147  c-0.366-0.127-0.732-0.214-1.141-0.214c-1.742,0-3.141,1.398-3.141,3.14c0,1.74,1.396,3.141,3.141,3.141  c1.721,0,3.14-1.398,3.14-3.141c0-0.086,0-0.191-0.021-0.279c0-0.021,0-0.021,0-0.041c1.569-1.657,2.646-4.045,2.796-6.561  c0.172-3.185-1.185-5.763-3.742-7.075c-0.989-0.515-2.021-0.687-2.945-0.817c-1.592-0.258-2.131-0.408-2.494-1.268  c-0.494-1.226,0.432-2.602,1.377-3.44c0.473,0.021,0.9,0.043,1.311,0.043c0.518,0,0.988-0.022,1.397-0.063  c0.56,0.642,1.397,1.052,2.321,1.052c1.722,0,3.119-1.419,3.119-3.139c0-1.745-1.397-3.141-3.118-3.141  c-1.354,0-2.495,0.838-2.925,2.023h-0.021c-1.29,0.083-3.118,0-5.184-0.689c-2.172-0.752-3.439-2.087-4.084-3.053V30.96  c0-1.268,1.011-2.299,2.277-2.299h0.344c7.141,0.924,13.525,3.913,18.795,8.323c-1.44,0.15-2.926,0.621-4.192,1.696  c-1.204,1.012-1.957,2.388-2.235,4.108c-1.055,0.494-1.785,1.57-1.785,2.817c0,1.743,1.396,3.139,3.117,3.139  c1.741,0,3.139-1.396,3.139-3.139c0-1.012-0.473-1.892-1.225-2.453c0.15-0.859,0.516-1.524,1.075-2  c1.59-1.375,4.644-1.074,5.677-0.837c0.021,0,0.021,0,0.043,0c1.807,1.954,3.396,4.128,4.752,6.451  c-4.149-0.238-7.031,2.343-8.084,3.957c-0.279,0.43-0.347,0.947-0.174,1.42c0.41,1.159,0.883,4.084-0.3,6.858  c-0.151,0.343-0.365,0.71-0.647,1.054c-0.343-0.129-0.729-0.193-1.117-0.193c-1.719,0-3.139,1.396-3.139,3.139  c0,1.721,1.42,3.141,3.139,3.141c1.742,0,3.142-1.42,3.142-3.141c0-0.105,0-0.191-0.022-0.301c0.711-0.773,1.25-1.592,1.613-2.428  c1.461-3.485,1.012-6.754,0.624-8.302c0.859-0.927,2.923-2.645,6.127-1.807c0.193,0.064,0.409,0.064,0.603,0.043  c2.064,4.601,3.227,9.698,3.227,15.073h-0.023V65.281z M43.699,50.207c0.044,0.064,0.064,0.127,0.064,0.195  c0.022,0.063,0.043,0.128,0.043,0.193c0.022,0.063,0.022,0.148,0.022,0.214v0.107c0,0.021-0.022,0.044-0.022,0.044v0.106  c0,0.043-0.021,0.064-0.021,0.084c0,0.023,0,0.043,0,0.043c-0.022,0-0.022,0.021-0.022,0.021c-0.043,0.172-0.129,0.344-0.214,0.496  c-0.043,0.02-0.065,0.064-0.086,0.085c-0.086,0.108-0.172,0.193-0.28,0.259c-0.086,0.063-0.193,0.107-0.279,0.151  c-0.021,0.021-0.021,0.021-0.021,0.021c-0.086,0.021-0.172,0.064-0.281,0.086c-0.085,0-0.192,0.021-0.3,0.021  c-0.839,0-1.526-0.688-1.526-1.527c0-0.839,0.687-1.524,1.526-1.524c0.516,0,0.99,0.279,1.269,0.666  c0.043,0.063,0.064,0.129,0.086,0.191c0.021,0.023,0.021,0.023,0.021,0.023v0.021C43.699,50.207,43.699,50.207,43.699,50.207z   M39.98,33.263c0-0.86,0.688-1.527,1.526-1.527c0.838,0,1.527,0.667,1.527,1.527c0,0.109-0.021,0.214-0.021,0.324  c-0.172,0.688-0.775,1.182-1.505,1.182C40.667,34.769,39.98,34.103,39.98,33.263z M62.751,60.398c0,0.838-0.688,1.526-1.526,1.526  c-0.84,0-1.526-0.688-1.526-1.526s0.688-1.525,1.526-1.525S62.751,59.563,62.751,60.398z M64.363,40.337  c-0.84,0-1.527-0.687-1.527-1.526c0-0.668,0.432-1.227,1.014-1.442h0.021c0.149-0.065,0.321-0.085,0.493-0.085  c0.84,0,1.507,0.686,1.507,1.527c0,0.688-0.452,1.288-1.097,1.461c-0.022,0.021-0.065,0.021-0.107,0.044  C64.579,40.316,64.473,40.337,64.363,40.337z M69.998,45.605c0,0.428-0.173,0.818-0.452,1.076c-0.065,0.062-0.13,0.129-0.192,0.171  c-0.258,0.173-0.562,0.28-0.883,0.28c-0.839,0-1.506-0.666-1.506-1.527c0-0.129,0.021-0.237,0.043-0.344c0-0.021,0-0.021,0-0.021  c0.174-0.668,0.754-1.141,1.463-1.141C69.311,44.101,69.998,44.766,69.998,45.605z M73.137,63c0,0.669-0.431,1.249-1.033,1.441  c-0.147,0.064-0.32,0.086-0.494,0.086c-0.838,0-1.524-0.687-1.524-1.527c0-0.708,0.494-1.309,1.161-1.48  c0.105-0.023,0.236-0.045,0.363-0.045C72.447,61.475,73.137,62.161,73.137,63z"/>
</svg>